<svg xmlns="http://www.w3.org/2000/svg" width="64" height="64" viewBox="0 0 64 64">
  <!-- Boss - Dark Lord -->
  <!-- Head -->
  <rect x="24" y="8" width="16" height="14" fill="#8e44ad"/>
  <rect x="20" y="12" width="24" height="8" fill="#8e44ad"/>
  <!-- Eyes -->
  <rect x="26" y="12" width="4" height="4" fill="#e74c3c"/>
  <rect x="34" y="12" width="4" height="4" fill="#e74c3c"/>
  <rect x="28" y="13" width="2" height="2" fill="#f39c12"/>
  <rect x="36" y="13" width="2" height="2" fill="#f39c12"/>
  <!-- Crown -->
  <rect x="22" y="4" width="20" height="6" fill="#f1c40f"/>
  <rect x="24" y="2" width="4" height="4" fill="#f1c40f"/>
  <rect x="30" y="0" width="4" height="6" fill="#f1c40f"/>
  <rect x="36" y="2" width="4" height="4" fill="#f1c40f"/>
  <!-- Body -->
  <rect x="20" y="22" width="24" height="20" fill="#7d3c98"/>
  <rect x="16" y="26" width="32" height="14" fill="#7d3c98"/>
  <!-- Armor -->
  <rect x="22" y="24" width="20" height="8" fill="#9b59b6"/>
  <rect x="24" y="34" width="16" height="4" fill="#9b59b6"/>
  <!-- Cape -->
  <rect x="18" y="22" width="28" height="24" fill="#6c3483"/>
  <rect x="16" y="26" width="32" height="18" fill="#6c3483"/>
  <!-- Arms -->
  <rect x="10" y="26" width="8" height="12" fill="#8e44ad"/>
  <rect x="46" y="26" width="8" height="12" fill="#8e44ad"/>
  <!-- Staff -->
  <rect x="50" y="10" width="4" height="30" fill="#1a1a2e"/>
  <circle cx="52" cy="10" r="6" fill="#e74c3c"/>
  <circle cx="52" cy="10" r="3" fill="#f39c12"/>
  <!-- Legs -->
  <rect x="22" y="42" width="8" height="12" fill="#6c3483"/>
  <rect x="34" y="42" width="8" height="12" fill="#6c3483"/>
  <!-- Feet -->
  <rect x="20" y="54" width="10" height="4" fill="#6c3483"/>
  <rect x="34" y="54" width="10" height="4" fill="#6c3483"/>
</svg>
